<svg id="Layer_1" data-name="Layer 1" xmlns="http://www.w3.org/2000/svg" viewBox="0 0 5369.92 2394.51"><defs><style>.cls-1{fill:#060706;}.cls-2{fill:#fff;}</style></defs><rect class="cls-1" x="-9.79" y="-9.28" width="5388.26" height="2413.06"/><g id="Layer_2" data-name="Layer 2"><g id="Layer_1-2" data-name="Layer 1-2"><path class="cls-2" d="M4365.08,1595.4V490.06h205.73V1595.4Z"/><path class="cls-2" d="M799.11,1904.47V798.68H982.39L1004.9,912.8q38.58-53.09,102-93.29t164.76-40.2q112.46,0,200.91,54.65t139.84,149.5q51.42,94.69,51.42,215.38t-51.42,214.56a387.16,387.16,0,0,1-139.84,147.88q-88.59,53.85-200.91,53.85-90,0-157.53-33.78a283.56,283.56,0,0,1-109.29-94.7v417.82Zm429.15-469.35q98,0,162.32-65.89t64.3-170.36q0-104.47-64.3-172t-162.32-67.48q-99.71,0-163.15,66.69t-63.48,171.06q0,104.53,63.48,171.06T1228.26,1435.12Z"/><path class="cls-2" d="M1869.56,695.67q-53.25,0-87.67-31.95t-34.31-81q0-48.87,34.31-80.15t87.67-31.28q53.37,0,87.7,31.28t34.3,80.15q0,48.87-34.3,80.92T1869.56,695.67Zm-102.85,900V798.4h205.73v797.28Z"/><path class="cls-2" d="M4211.58,971.42A369.6,369.6,0,0,0,4071.07,830.9q-90-51.4-207.35-51.44-125.25,0-217.8,53.86a378.87,378.87,0,0,0-144.64,150.29Q3449,1080,3449,1203.79q0,122.19,53.06,215.39a372,372,0,0,0,146.26,144.67q93.2,51.4,213.83,51.44,96.4,0,172.77-35.38a368.25,368.25,0,0,0,128.6-97.23,380.26,380.26,0,0,0,73.32-132.51H4027a174.13,174.13,0,0,1-61.09,68.21q-42.55,28.14-105.27,28.13-83.58,0-142.25-53T3653,1247.17H4259q1.59-20.87,2.42-40.17t.79-37Q4262.2,1060.65,4211.58,971.42ZM3656.24,1118.5q16.07-86.77,74-129.39t133.39-42.59q78.72,0,131.81,46.62t57.86,125.24Z"/><path class="cls-2" d="M2612.46,1263.45l-278.8,332.23H2075.32l278.8-332.23a102.67,102.67,0,0,0,0-132l-278.8-332.31h258.34l278.8,332.31A102.72,102.72,0,0,1,2612.46,1263.45Z"/><path class="cls-2" d="M3468,796.57l-193.39,230.66a51.38,51.38,0,0,1-78.69,0L3004.59,799.11Z"/><path class="cls-2" d="M3467.07,1595.68H3208.73l-166.26-198.16a51.38,51.38,0,0,0-72.39-6.3,50.67,50.67,0,0,0-6.3,6.3l-166.27,198.16H2540.28l278.8-332.23a102.76,102.76,0,0,0,0-132.06l-278.8-332.28h258.33Z"/></g></g></svg>