<svg xmlns="http://www.w3.org/2000/svg" viewBox="2055 776 1433 840" fill="#06bdff"><path d="M2612.46,1263.45l-278.8,332.23H2075.32l278.8-332.23a102.67,102.67,0,0,0,0-132l-278.8-332.31h258.34l278.8,332.31A102.72,102.72,0,0,1,2612.46,1263.45Z"/><path d="M3468,796.57l-193.39,230.66a51.38,51.38,0,0,1-78.69,0L3004.59,799.11Z"/><path d="M3467.07,1595.68H3208.73l-166.26-198.16a51.38,51.38,0,0,0-72.39-6.3,50.67,50.67,0,0,0-6.3,6.3l-166.27,198.16H2540.28l278.8-332.23a102.76,102.76,0,0,0,0-132.06l-278.8-332.28h258.33Z"/></svg>
